<?xml version="1.0" encoding="UTF-8"?>
<!DOCTYPE svg PUBLIC "-//W3C//DTD SVG 1.1//EN" "http://www.w3.org/Graphics/SVG/1.1/DTD/svg11.dtd">
<svg xmlns="http://www.w3.org/2000/svg" version="1.1" width="512px" height="512px" style="shape-rendering:geometricPrecision; text-rendering:geometricPrecision; image-rendering:optimizeQuality; fill-rule:evenodd; clip-rule:evenodd" xmlns:xlink="http://www.w3.org/1999/xlink">
<g><path style="opacity:0.99" fill="#fefffe" d="M -0.5,91.5 C -0.5,91.1667 -0.5,90.8333 -0.5,90.5C 1.89246,56.9348 19.5591,36.4348 52.5,29C 187.833,28.3333 323.167,28.3333 458.5,29C 486.547,34.713 503.713,51.5464 510,79.5C 510.667,165.5 510.667,251.5 510,337.5C 504.33,365.047 487.83,381.88 460.5,388C 412.501,388.5 364.501,388.667 316.5,388.5C 316.5,403.833 316.5,419.167 316.5,434.5C 338.566,434.032 360.566,434.532 382.5,436C 387.728,438.949 390.561,443.449 391,449.5C 391.5,460.495 391.667,471.495 391.5,482.5C 300.833,482.5 210.167,482.5 119.5,482.5C 119.333,471.495 119.5,460.495 120,449.5C 120.439,443.449 123.272,438.949 128.5,436C 150.434,434.532 172.434,434.032 194.5,434.5C 194.5,419.167 194.5,403.833 194.5,388.5C 146.499,388.667 98.4988,388.5 50.5,388C 23.1702,381.88 6.67019,365.047 1,337.5C 0.832989,255.332 0.332989,173.332 -0.5,91.5 Z M 70.5,92.5 C 194.581,92.0037 318.581,92.5037 442.5,94C 447.039,96.8868 449.539,101.053 450,106.5C 450.667,174.5 450.667,242.5 450,310.5C 449.374,318.455 445.208,323.288 437.5,325C 314.791,325.993 192.124,325.659 69.5,324C 64.2719,321.051 61.4385,316.551 61,310.5C 60.3333,242.5 60.3333,174.5 61,106.5C 61.9594,100.223 65.126,95.5563 70.5,92.5 Z"/></g>
</svg>
